<svg width="62" height="62" viewBox="0 0 62 62" fill="none" xmlns="http://www.w3.org/2000/svg">
    <g clip-path="url(#clip0_43_3)">
        <path d="M58.125 54.25H54.25V58.125C54.25 59.2148 53.8665 60.1331 53.0996 60.8799C52.3327 61.6266 51.4144 62 50.3447 62C49.2751 62 48.3669 61.6266 47.6201 60.8799C46.8734 60.1331 46.5 59.2148 46.5 58.125V54.25H42.625C41.5352 54.25 40.6169 53.8665 39.8701 53.0996C39.1234 52.3327 38.75 51.4144 38.75 50.3447C38.75 49.2751 39.1234 48.3669 39.8701 47.6201C40.6169 46.8734 41.5352 46.5 42.625 46.5H46.5V42.625C46.5 41.5352 46.8734 40.6169 47.6201 39.8701C48.3669 39.1234 49.2751 38.75 50.3447 38.75C51.4144 38.75 52.3327 39.1234 53.0996 39.8701C53.8665 40.6169 54.25 41.5352 54.25 42.625V46.5H58.125C59.1745 46.5 60.0827 46.8734 60.8496 47.6201C61.6165 48.3669 62 49.2751 62 50.3447C62 51.4144 61.6165 52.3327 60.8496 53.0996C60.0827 53.8665 59.1745 54.25 58.125 54.25ZM42.9883 38.75C41.6966 39.7995 40.2839 40.6471 38.75 41.293V42.9883C37.6198 43.3919 36.6914 44.0882 35.9648 45.0771C35.2383 46.0661 34.875 47.1862 34.875 48.4375V52.3125C34.875 53.9271 35.4401 55.2995 36.5703 56.4297C37.7005 57.5599 39.0729 58.125 40.6875 58.125H42.625V61.8789C39.7995 61.9596 35.9245 62 31 62H26.3984L21.4941 61.9395L16.2266 61.7881L11.3828 61.5156L6.81152 61.001L3.33008 60.2744L0.817383 59.2754L0 57.9434C0.0807292 54.3913 2.30078 51.2529 6.66016 48.5283C11.0195 45.8037 16.5495 43.9974 23.25 43.1094V41.1113C21.151 40.1829 19.3346 38.8711 17.8008 37.1758C16.2669 35.4805 15.056 33.4925 14.168 31.2119C13.2799 28.9313 12.6341 26.4893 12.2305 23.8857C11.8268 21.2822 11.625 18.487 11.625 15.5C11.625 12.8763 12.1296 10.5654 13.1387 8.56738C14.1478 6.56934 15.5404 4.95475 17.3164 3.72363C19.0924 2.49251 21.1309 1.56413 23.4316 0.938477C25.7324 0.312826 28.2552 0 31 0C33.7448 0 36.2676 0.312826 38.5684 0.938477C40.8691 1.56413 42.9076 2.49251 44.6836 3.72363C46.4596 4.95475 47.8522 6.56934 48.8613 8.56738C49.8704 10.5654 50.375 12.8763 50.375 15.5C50.375 24.3802 48.8613 31.0404 45.834 35.4805C44.4616 36.207 43.513 37.2969 42.9883 38.75Z" fill="#9C9C9C"/>
    </g>
    <defs>
        <clipPath id="clip0_43_3">
            <rect width="62" height="62" fill="white"/>
        </clipPath>
    </defs>
</svg>